<?xml version="1.0" encoding="UTF-8"?>
<svg id="Camada_1" xmlns="http://www.w3.org/2000/svg" version="1.1" viewBox="115 115 270 270">
  <defs>
    <style>
      .st0 {
        fill: #ffeb1c;
      }
    </style>
  </defs>
  <rect class="st0" x="-520" width="500" height="500"/>
  <g>
    <path d="M-240.8,220.5c-3.9.2-7.7,2.3-9.5,6.2-2.2,4.8-2.1,10.5.5,15.2,2,3.6,5.7,5.3,9.5,5.4,3.8,0,7.6-1.5,9.8-5.2,2.9-5,2.9-11.3.1-16.1-2.2-3.9-6.1-5.6-10.4-5.4Z"/>
    <path d="M-288.4,239.2c1.3-3.5,1.3-7.3.1-10.6-1.7-4.9-5.8-8-10.5-8.2-5.1-.3-9.5,2.1-11.7,6.9-1.8,3.9-1.8,8.4-.2,12.4,2,4.9,6.4,7.6,11.5,7.4,4.7-.1,8.9-2.9,10.8-7.9Z"/>
    <path d="M-224.2,170.6h-91.6c-18.5,0-33.6,15-33.6,33.6v91.6c0,18.5,15,33.6,33.6,33.6h91.6c18.5,0,33.6-15,33.6-33.6v-91.6c0-18.5-15-33.6-33.6-33.6ZM-327.4,233.7c0-10.1,5.3-19,14.4-23.6,8.5-4.3,18.7-4.3,27.2.2,9,4.8,14.2,13.8,14,23.9-.1,9.8-5.1,18.5-14,23.2-8.7,4.6-18.9,4.4-27.4,0-9-4.6-14.2-13.7-14.2-23.7ZM-246,290.3l-.3-8.9c-15.3,11.8-46.2,19.4-61.8,4.2,12.8.4,5-8.9-2-16.8,18,16.4,38.2,22.1,61.5,9.7l-7.9-3.8c8.4-1.2,17.3-3.5,26.5-7.4-5.8,7.2-11.1,14.8-16,23ZM-212.6,259.5h-15.2s0,0,0,0h-.6v-7.9c-2.9,5.3-7.6,8.3-13.6,9-9.3,1-17.8-3.4-22.2-11.8-7.9-15.1-2.3-35.5,15.1-40.5,6.8-2,14.1-1.9,20.7.7v-3h15.8v53.5Z"/>
  </g>
  <rect class="st0" x="1.7" y="1.7" width="496.5" height="496.5"/>
  <g>
    <path d="M279.2,220.5c-3.9.2-7.7,2.3-9.5,6.2-2.2,4.8-2.1,10.5.5,15.2,2,3.6,5.7,5.3,9.5,5.4,3.8,0,7.6-1.5,9.8-5.2,2.9-5,2.9-11.3.1-16.1-2.2-3.9-6.1-5.6-10.4-5.4Z"/>
    <path d="M231.6,239.2c1.3-3.5,1.3-7.3.1-10.6-1.7-4.9-5.8-8-10.5-8.2-5.1-.3-9.5,2.1-11.7,6.9-1.8,3.9-1.8,8.4-.2,12.4,2,4.9,6.4,7.6,11.5,7.4,4.7-.1,8.9-2.9,10.8-7.9Z"/>
    <path d="M295.8,170.6h-91.6c-18.5,0-33.6,15-33.6,33.6v91.6c0,18.5,15,33.6,33.6,33.6h91.6c18.5,0,33.6-15,33.6-33.6v-91.6c0-18.5-15-33.6-33.6-33.6ZM192.6,233.7c0-10.1,5.3-19,14.4-23.6,8.5-4.3,18.7-4.3,27.2.2,9,4.8,14.2,13.8,14,23.9-.1,9.8-5.1,18.5-14,23.2-8.7,4.6-18.9,4.4-27.4,0-9-4.6-14.2-13.7-14.2-23.7ZM274,290.3l-.3-8.9c-15.3,11.8-46.2,19.4-61.8,4.2l-2-16.8c18,16.4,38.2,22.1,61.5,9.7l-7.9-3.8c8.4-1.2,17.3-3.5,26.5-7.4-5.8,7.2-11.1,14.8-16,23ZM307.4,259.5h-15.2s0,0,0,0h-.6v-7.9c-2.9,5.3-7.6,8.3-13.6,9-9.3,1-17.8-3.4-22.2-11.8-7.9-15.1-2.3-35.5,15.1-40.5,6.8-2,14.1-1.9,20.7.7v-3h15.8v53.5Z"/>
  </g>
</svg>
